<?xml version="1.0" encoding="utf-8"?>
<!-- Generator: Adobe Illustrator 18.0.0, SVG Export Plug-In . SVG Version: 6.00 Build 0)  -->
<!DOCTYPE svg PUBLIC "-//W3C//DTD SVG 1.1//EN" "http://www.w3.org/Graphics/SVG/1.1/DTD/svg11.dtd">
<svg version="1.1" xmlns="http://www.w3.org/2000/svg" xmlns:xlink="http://www.w3.org/1999/xlink" x="0px" y="0px"
	 viewBox="0 0 52.7 39.4" enable-background="new 0 0 52.7 39.4" xml:space="preserve">
<g id="Layer_1">
</g>
<g id="Layer_3">
</g>
<g id="Layer_4">
	<path fill="none" stroke="#0000FF" stroke-width="2" stroke-miterlimit="10" d="M11.9,36c-1,0-1.8-0.8-1.8-1.8V5.3
		c0-1,0.8-1.8,1.8-1.8h28.9c1,0,1.8,0.8,1.8,1.8v28.9c0,1-0.8,1.8-1.8,1.8H11.9z M32.5,36V23.4h4.2l0.6-4.9h-4.9v-3.1
		c0-1.4,0.4-2.4,2.4-2.4l2.6,0V8.6c-0.4-0.1-2-0.2-3.8-0.2c-3.7,0-6.3,2.3-6.3,6.5v3.6h-4.2v4.9h4.2V36H32.5z"/>
</g>
<g id="Layer_5">
</g>
</svg>
