<?xml version="1.0" encoding="utf-8"?>
<!-- Generator: Adobe Illustrator 18.0.0, SVG Export Plug-In . SVG Version: 6.00 Build 0)  -->
<!DOCTYPE svg PUBLIC "-//W3C//DTD SVG 1.1//EN" "http://www.w3.org/Graphics/SVG/1.1/DTD/svg11.dtd">
<svg version="1.1" xmlns="http://www.w3.org/2000/svg" xmlns:xlink="http://www.w3.org/1999/xlink" x="0px" y="0px"
	 viewBox="0 0 52.7 39.4" enable-background="new 0 0 52.7 39.4" xml:space="preserve">
<g id="Layer_1">
</g>
<g id="Layer_3">
	<path fill="none" stroke="#0000FF" stroke-width="2" stroke-miterlimit="10" d="M35.3,1.7H17.4c-4.9,0-9,4-9,9v18.1c0,4.9,4,9,9,9
		h17.9c4.9,0,9-4,9-9V10.7C44.2,5.7,40.2,1.7,35.3,1.7z M33.7,20.7c0,3.9-3.2,7.1-7.1,7.1c-3.9,0-7.1-3.2-7.1-7.1
		c0-3.9,3.2-7.1,7.1-7.1C30.5,13.5,33.7,16.8,33.7,20.7z M8.4,16.9h11.9 M32.7,16.9h11.5"/>
</g>
<g id="Layer_4">
</g>
<g id="Layer_5">
</g>
</svg>
