<?xml version="1.0" encoding="utf-8"?>
<!-- Generator: Adobe Illustrator 18.0.0, SVG Export Plug-In . SVG Version: 6.00 Build 0)  -->
<!DOCTYPE svg PUBLIC "-//W3C//DTD SVG 1.1//EN" "http://www.w3.org/Graphics/SVG/1.1/DTD/svg11.dtd">
<svg version="1.1" xmlns="http://www.w3.org/2000/svg" xmlns:xlink="http://www.w3.org/1999/xlink" x="0px" y="0px"
	 viewBox="0 0 52.7 39.4" enable-background="new 0 0 52.7 39.4" xml:space="preserve">
<g id="Layer_1">
</g>
<g id="Layer_3">
</g>
<g id="Layer_4">
</g>
<g id="Layer_5">
	<path fill="none" stroke="#0000FF" stroke-width="2" stroke-linecap="round" stroke-linejoin="round" stroke-miterlimit="10" d="
		M46.6,7.1c-1.5,0.7-3.1,1.1-4.8,1.3c1.7-1,3-2.7,3.7-4.6c-1.6,1-3.4,1.6-5.3,2c-1.5-1.6-3.7-2.6-6.1-2.6c-4.6,0-8.3,3.7-8.3,8.3
		c0,0.7,0.1,1.3,0.2,1.9C19.1,13.1,13,9.8,8.8,4.7C8.1,6,7.7,7.4,7.7,8.9c0,2.9,1.5,5.4,3.7,6.9c-1.4,0-2.7-0.4-3.8-1
		c0,0,0,0.1,0,0.1c0,4,2.9,7.4,6.7,8.2c-0.7,0.2-1.4,0.3-2.2,0.3c-0.5,0-1.1-0.1-1.6-0.1c1.1,3.3,4.1,5.7,7.8,5.8
		c-2.9,2.2-6.4,3.6-10.4,3.6c-0.7,0-1.3,0-2-0.1c3.7,2.4,8.1,3.7,12.8,3.7c15.3,0,23.7-12.7,23.7-23.7c0-0.4,0-0.7,0-1.1
		C44.1,10.3,45.5,8.8,46.6,7.1z"/>
</g>
</svg>
